<?xml version="1.0" encoding="iso-8859-1"?>
<!-- Generator: Adobe Illustrator 19.0.0, SVG Export Plug-In . SVG Version: 6.00 Build 0)  -->
<svg version="1.1" id="Layer_1" xmlns="http://www.w3.org/2000/svg" xmlns:xlink="http://www.w3.org/1999/xlink" x="0px" y="0px"
	 viewBox="0 0 512 512" style="enable-background:new 0 0 512 512;" xml:space="preserve">
<path style="fill:#B2C4D0;" d="M240.046,462.555c-0.056,0.526-0.056,1.069,0,1.595l7.975,39.875c0,4.402,3.573,7.975,7.975,7.975
	s7.975-3.573,7.975-7.975l7.975-39.875c0.056-0.526,0.056-1.069,0-1.595V303.053h-31.9L240.046,462.555L240.046,462.555z"/>
<path style="fill:#8FAEBF;" d="M240.046,319.003c8.812,0,15.95,7.138,15.95,15.95v175.452c3.852,0.08,7.209-2.608,7.975-6.38
	l7.975-39.875v-1.595V303.053h-31.9L240.046,319.003L240.046,319.003z"/>
<path style="fill:#DE333F;" d="M376.18,267.883l-64.359-68.506V74.168l29.189-43.863c1.747-2.592,2.688-5.646,2.712-8.773V15.95
	c0-8.812-7.138-15.95-15.95-15.95H184.22c-8.812,0-15.95,7.138-15.95,15.95v5.583c0.008,3.15,0.949,6.237,2.712,8.852l29.189,43.783
	v125.209l-64.359,68.506c-4.53,5.056-7.13,11.556-7.337,18.343c-0.223,9.068,6.954,16.604,16.022,16.819
	c0.136,0.008,0.271,0.008,0.407,0.008h222.186c9.076,0.048,16.469-7.273,16.516-16.341c0-0.16,0-0.319-0.008-0.486
	C383.366,279.431,380.742,272.931,376.18,267.883z"/>
<path style="fill:#C61C31;" d="M383.597,286.226c-0.207-6.787-2.807-13.286-7.337-18.343l-64.439-68.506V74.168l29.189-43.863
	c1.747-2.592,2.688-5.646,2.712-8.773V15.95H322.03c-12.76-0.016-24.308,7.576-29.348,19.3l-11.803,27.514
	c-2.56,5.941-3.892,12.345-3.908,18.821v114.123c0,2.432,0.191,4.857,0.558,7.257l14.036,64.758
	c1.85,8.613-3.629,17.099-12.242,18.949c-1.22,0.263-2.464,0.383-3.708,0.351h-147.22c0.255,8.884,7.536,15.95,16.429,15.95h222.265
	c9.076,0.048,16.469-7.273,16.508-16.349C383.597,286.497,383.597,286.361,383.597,286.226z"/>
<g>
</g>
<g>
</g>
<g>
</g>
<g>
</g>
<g>
</g>
<g>
</g>
<g>
</g>
<g>
</g>
<g>
</g>
<g>
</g>
<g>
</g>
<g>
</g>
<g>
</g>
<g>
</g>
<g>
</g>
</svg>
